<?xml version="1.0" standalone="no"?>
<!DOCTYPE svg PUBLIC "-//W3C//DTD SVG 20010904//EN"
 "http://www.w3.org/TR/2001/REC-SVG-20010904/DTD/svg10.dtd">
<svg version="1.0" xmlns="http://www.w3.org/2000/svg"
 width="504.000000pt" height="504.000000pt" viewBox="0 0 504.000000 504.000000"
 preserveAspectRatio="xMidYMid meet">
<metadata>
Created by potrace 1.11, written by Peter Selinger 2001-2013
</metadata>
<g transform="translate(0.000000,504.000000) scale(0.100000,-0.100000)"
fill="#000000" stroke="none">
<path d="M3195 4920 c-83 -24 -146 -62 -201 -123 -132 -146 -143 -359 -27
-519 56 -77 160 -146 248 -163 60 -11 151 -5 213 14 322 103 388 530 113 729
-97 70 -232 94 -346 62z"/>
<path d="M1596 4906 c-158 -57 -264 -203 -270 -371 -3 -87 6 -133 45 -212 43
-90 105 -140 273 -223 183 -90 228 -131 260 -239 20 -68 20 -152 1 -217 -8
-28 -45 -100 -83 -160 -148 -237 -172 -323 -171 -624 0 -96 -4 -190 -10 -208
-5 -18 -11 -36 -12 -40 -38 -145 -175 -265 -337 -296 -71 -13 -86 -13 -222 -1
-189 17 -249 11 -360 -32 -184 -73 -321 -228 -385 -433 -32 -104 -27 -314 10
-418 2 -7 5 -16 6 -20 1 -4 10 -25 21 -47 150 -294 481 -434 798 -338 152 46
301 168 377 308 28 52 59 139 68 190 4 22 9 49 11 60 2 11 6 63 8 116 8 152
53 259 146 349 135 131 284 156 540 92 97 -25 131 -28 220 -26 319 9 575 172
735 469 76 140 135 209 228 269 96 61 166 80 297 80 121 0 213 -20 304 -66
191 -98 420 -86 573 29 99 73 176 192 203 312 17 71 7 210 -19 280 -60 160
-177 275 -333 327 -70 23 -201 27 -275 8 -108 -27 -179 -72 -296 -184 -60 -58
-132 -119 -159 -137 -169 -108 -427 -102 -597 14 -31 21 -58 40 -61 43 -3 3
-39 33 -80 66 -164 134 -310 187 -545 199 -199 11 -308 72 -377 213 -30 61
-33 74 -33 162 1 74 7 115 28 185 68 221 -10 405 -213 503 -65 31 -87 36 -160
39 -71 3 -96 0 -154 -21z"/>
<path d="M618 3829 c-262 -39 -456 -276 -441 -539 20 -353 380 -587 706 -459
400 158 447 710 78 929 -102 61 -228 86 -343 69z"/>
<path d="M3945 2303 c-375 -79 -612 -483 -498 -848 61 -196 206 -353 393 -428
90 -36 110 -39 230 -43 158 -5 272 28 401 116 114 78 207 203 255 345 21 64
27 100 28 180 1 123 -8 180 -41 265 -80 200 -234 341 -443 405 -75 23 -237 27
-325 8z"/>
<path d="M2488 1575 c-2 -1 -28 -5 -58 -8 -117 -11 -244 -57 -342 -125 -123
-85 -251 -261 -284 -392 -20 -81 -25 -112 -28 -176 -15 -342 204 -642 537
-738 78 -23 103 -25 210 -22 130 3 202 19 293 62 374 177 529 621 346 992 -62
125 -159 230 -284 305 -68 40 -198 85 -270 93 -29 3 -67 7 -85 9 -17 2 -33 2
-35 0z"/>
</g>
</svg>
